General
Complete name                    : Pearl Harbor.mkv
Format                           : Matroska
File size                        : 2.16 GiB
Duration                         : 3h 3mn
Overall bit rate                 : 1 689 Kbps


Video
ID                               : 1
Format                           : AVC
Duration                         : 3h 3mn
Bit rate                         : 1 207 Kbps
Width                            : 720 pixels
Height                           : 428 pixels
Display aspect ratio             : 2.35:1
Frame rate                       : 25.000 fps
Resolution                       : 8 bits
Colorimetry                      : 4:2:0
Scan type                        : Progressive
Bits/(Pixel*Frame)               : 0.157
Stream size                      : 1.54 GiB (71%)
Writing library                  : x264 core 79


Audio
ID                               : 2
Format                           : AC-3
Format/Info                      : Audio Coding 3
Codec ID                         : A_AC3
Duration                         : 3h 3mn
Bit rate mode                    : Constant
Bit rate                         : 448 Kbps
Channel(s)                       : 6 channels
Channel positions                : Front: L C R, Surround: L R, LFE
Sampling rate                    : 48.0 KHz
Stream size                      : 587 MiB (27%)
Language                         : English

Text #1
Language                         : English

Text #2
Language                         : English(for hearing)

Text #3
Language                         : Spanish

Text #4
Language                         : French

Text #5
Language                         : Dutch

Text #6
Language                         : Swedish

Text #7
Language                         : Norwegian

Text #8
Language                         : Danish

Text #9
Language                         : Finnish

